<?xml version="1.0" encoding="utf-8"?>
<!-- Generator: Adobe Illustrator 25.2.1, SVG Export Plug-In . SVG Version: 6.00 Build 0)  -->
<svg version="1.1" id="Art" xmlns="http://www.w3.org/2000/svg" xmlns:xlink="http://www.w3.org/1999/xlink" x="0px" y="0px"
	 viewBox="0 0 792 612" style="enable-background:new 0 0 792 612;" xml:space="preserve">
<style type="text/css">
	.st0{fill:#FFFFFF;}
</style>
<g>
	<g>
		<path d="M330.07,338.79c0,9.78-6.5,14.74-15.01,14.74c-9.04,0-15.28-3.62-15.28-14v-22.38l-4.96-1.54l0.47-2.14h15.14l0.54,2.14
			l-5.03,1.54v21.44c0,7.64,3.22,11.19,9.65,11.19c6.23,0,10.52-3.55,10.52-11.66v-20.97l-5.02-1.54l0.54-2.14h12.93l0.54,2.14
			l-5.03,1.54V338.79z"/>
		<path d="M364.57,350.91l-0.87,1.94h-12.86v-1.88l3.15-1.14v-16.55c0-4.29-2.68-5.16-4.96-5.16c-2.68,0-5.29,1.34-6.83,2.68v18.83
			l4.69,1.27l-0.87,1.94h-12.86v-1.88l3.15-1.07v-19.5l-3.22-3.62v-0.74l8.04-3.08h1.01l-0.2,5.7h0.27c2.68-4.42,6.77-5.7,9.78-5.7
			c3.89,0,7.91,2.35,7.91,9.18v17.49L364.57,350.91z"/>
		<path d="M379.04,350.91l-0.87,1.94h-12.86v-1.88l3.15-1.07v-19.5l-3.22-3.62v-0.74l8.04-3.08h1.07v26.67L379.04,350.91z
			 M371.34,310.04c2.35,0,4.15,1.81,4.15,4.15s-1.81,4.15-4.15,4.15c-2.34,0-4.15-1.81-4.15-4.15S368.99,310.04,371.34,310.04z"/>
		<path d="M399.34,327.06l-4.42-1.47l0.4-1.94h10.85l0.4,1.94l-3.08,1.27l-10.18,26h-3.35l-10.65-25.66l-2.88-1.81l0.47-1.74h12.33
			l0.47,2.01l-4.29,1.07l4.69,11.79c1.61,4.02,2.41,8.11,2.41,8.11h0.27c0,0,0.87-4.02,2.48-8.17L399.34,327.06z"/>
		<path d="M419.24,349.17c3.28,0,5.63-0.87,8.31-2.75l0.87,1.54c-2.41,3.69-5.83,5.56-10.99,5.56c-7.17,0-12.86-4.96-12.86-15.01
			c0-9.98,6.3-15.54,13.8-15.54c6.03,0,10.39,3.75,10.39,10.52c0,1.07-0.07,2.21-0.33,3.48H410.2
			C410.2,344.68,413.61,349.17,419.24,349.17z M410.4,334.1h12.26c0.07-0.47,0.07-1.34,0.07-1.81c0-4.22-1.67-6.43-5.16-6.43
			C414.35,325.85,411.34,328.4,410.4,334.1z"/>
		<path d="M444.9,350.85l-0.87,2.01h-14.2v-1.88l3.15-1.07v-19.5l-3.22-3.62v-0.74l8.04-3.08h1l-0.2,6.9h0.27
			c1.68-3.75,4.69-6.97,8.51-6.97c3.15,0,4.96,1.74,4.96,4.36c0,2.68-1.81,4.09-3.89,4.09c-2.41,0-3.82-1.74-3.82-4.09
			c-2.28,0.87-4.09,2.88-5.76,5.36v17.02L444.9,350.85z"/>
		<path d="M454.08,343.41c2.81,6.03,5.43,7.57,9.05,7.57c3.01,0,5.02-1.07,5.02-4.22c0-2.55-1.47-3.95-4.82-5.09l-3.82-1.34
			c-4.02-1.41-6.63-3.89-6.63-8.84c0-5.76,4.15-8.51,9.78-8.51c1.34,0,4.02,0.47,5.36,1.21l3.22-1.14l0.54,8.58l-1.41,0.47
			c-2.88-4.96-5.23-6.37-8.11-6.37c-2.81,0-4.56,1.61-4.56,4.02s1.21,3.95,4.49,5.09l3.82,1.27c4.42,1.54,7.17,3.89,7.17,8.98
			c0,5.96-4.49,8.44-10.45,8.44c-2.75,0-5.02-0.8-6.63-1.54l-3.02,1.54l-0.6-9.65L454.08,343.41z"/>
		<path d="M488.72,350.91l-0.87,1.94h-12.86v-1.88l3.15-1.07v-19.5l-3.22-3.62v-0.74l8.04-3.08h1.07v26.67L488.72,350.91z
			 M481.01,310.04c2.34,0,4.15,1.81,4.15,4.15s-1.81,4.15-4.15,4.15c-2.35,0-4.15-1.81-4.15-4.15S478.67,310.04,481.01,310.04z"/>
		<path d="M487.24,324.92l8.38-9.25h1.34v7.97h9.78l-0.47,3.15h-9.31v17.42c0,3.75,1.61,5.29,4.42,5.29c1.88,0,3.42-0.4,5.43-1.41
			l0.67,1.67c-2.21,2.41-4.76,3.75-9.11,3.75c-4.49,0-7.3-2.34-7.3-8.31v-18.42h-3.82V324.92z"/>
		<path d="M506.81,327.19l-2.88-1.81l0.47-1.74h12.4l0.47,2.01l-4.29,1.07l4.76,12.6c1.88,5.02,2.21,8.51,2.21,8.51h0.27
			c0,0,1.14-4.29,2.55-8.58l3.95-12.19l-4.42-1.47l0.4-1.94h10.72l0.4,1.94l-3.08,1.27l-9.31,25.39
			c-4.22,11.46-7.77,15.08-13.27,15.08c-3.48,0-5.36-2.01-5.36-4.56c0-2.41,1.47-3.88,3.82-3.88c2.08,0,3.42,1.47,3.42,3.42
			c0,1.01-0.33,1.81-0.67,2.28c2.68,0,6.16-4.89,8.04-10.72L506.81,327.19z"/>
	</g>
	<g>
		<g>
			<path class="st0" d="M283.65,275.92c-0.83-4.82-2.02-8.73-3.64-11.96c-1.4-2.8-3.14-5.08-5.17-6.78
				c-2.84-2.37-6.26-3.63-9.89-3.63c-1.73,0-3.4,0.23-4.98,0.69l5.34-11.42l-10.91-7.75h-7.86c-1.34,0-2.8-1.02-4.66-2.3
				c-3.29-2.27-7.79-5.39-15.39-5.39c-6.43,0-11.49,1.79-15.5,5.47c0,0-25.98,25.35-26.13,25.49l0,0c-1.51,1.54-2.83,3.43-3.93,5.62
				c-1.62,3.23-2.81,7.15-3.64,11.96c-1.74,10.09-1.4,20.16,0.99,29.14c2.58,9.69,7.3,18.98,14.02,27.63
				c8.21,10.57,19.45,20.17,33.39,28.53l4.78,2.87l4.78-2.87c13.94-8.37,25.18-17.97,33.39-28.53c6.72-8.65,11.44-17.94,14.02-27.63
				C285.05,296.08,285.39,286,283.65,275.92z"/>
			<g>
				<path d="M222.79,265.21h-14.49l-1.3,21.82c0.8,0.12,1.57,0.35,2.31,0.69L222.79,265.21z"/>
				<path d="M211.52,314.69c-0.04-0.02-0.08-0.04-0.12-0.06v1.77c0.23,0.11,0.47,0.21,0.72,0.31c1.11,0.45,2.45,0.8,4.5,0.8
					c2.25,0,3.64-0.42,4.81-0.93v-1.76c-1.22,0.58-2.46,1.09-4.81,1.09c-2.16,0-3.38-0.43-4.5-0.95
					C211.92,314.89,211.72,314.79,211.52,314.69z"/>
				<path d="M212.12,321.48c-0.2-0.09-0.4-0.19-0.6-0.28c-0.04-0.02-0.08-0.04-0.12-0.06v1.77c0.23,0.11,0.47,0.21,0.72,0.31
					c1.11,0.45,2.45,0.8,4.5,0.8c1.58,0,2.73-0.21,3.69-0.51v-1.69c-0.93,0.35-2.03,0.6-3.69,0.6
					C214.47,322.42,213.25,321.99,212.12,321.48z"/>
				<path d="M212.12,327.96c-0.2-0.09-0.4-0.19-0.6-0.28c-0.04-0.02-0.08-0.04-0.12-0.06v1.77c0.23,0.11,0.47,0.21,0.72,0.31
					c1.11,0.45,2.45,0.8,4.5,0.8c0.82,0,1.52-0.06,2.15-0.15v-1.62c-0.61,0.11-1.31,0.18-2.15,0.18
					C214.47,328.91,213.25,328.48,212.12,327.96z"/>
				<path d="M228.42,235.15c1.2,0.26,2.36,0.65,3.46,1.19c1.1,0.54,2.13,1.21,3.14,1.95c1.51,1.09,3.03,2.35,4.82,3.35v-2.7
					c-1.23-0.67-2.45-1.49-3.73-2.28c-1.12-0.69-2.3-1.34-3.56-1.84c-1.25-0.51-2.58-0.84-3.91-1.02c-1.33-0.18-2.67-0.19-3.98-0.08
					c-0.08,0.01-0.15,0.02-0.23,0.02v1.06c0.09,0,0.18-0.01,0.27-0.01C225.97,234.79,227.21,234.9,228.42,235.15z"/>
				<path d="M282.08,276.19c-0.8-4.66-1.95-8.43-3.5-11.52c-1.3-2.6-2.91-4.71-4.77-6.27c-2.55-2.13-5.61-3.26-8.86-3.26
					c-4.36,0-8.29,1.62-11.14,4.56l-4.83-5.21l0.78-1.68h6.57l-0.78,1.68h2.52l5.21-11.15l-9.4-6.68h-7.35
					c-1.84,0-3.49-1.14-5.57-2.59c-3.29-2.27-7.38-5.1-14.48-5.1c-6.01,0-10.71,1.64-14.41,5.04l-16.67,16.26h0
					c0,0-9.37,9.15-9.4,9.18c-1.39,1.41-2.61,3.16-3.64,5.21c-1.55,3.09-2.69,6.86-3.5,11.52c-1.7,9.86-1.37,19.7,0.96,28.45
					c2.53,9.48,7.15,18.58,13.73,27.06c8.09,10.41,19.18,19.88,32.95,28.14l3.96,2.38l3.96-2.38c13.77-8.27,24.86-17.73,32.95-28.14
					c6.59-8.48,11.21-17.58,13.73-27.06C283.45,295.89,283.78,286.05,282.08,276.19z M213.64,235.68c1.19-1.09,4.81-4.42,12.84-4.42
					c6.39,0,9.99,2.5,13.18,4.7c2.32,1.61,4.32,2.99,6.87,2.99h6.62l7.26,5.15l-3,6.43h-6.52c-0.95-0.07-1.88-0.41-2.62-1.05
					c-0.93-0.78-1.51-1.99-1.61-3.31h-1.15c-0.04,0.78,0.05,1.59,0.3,2.36c0.25,0.78,0.68,1.53,1.24,2.16
					c0.25,0.28,0.53,0.53,0.83,0.76l-1.62,3.46l4.45,4.8h-3.38l-5.85-5.02h-1.36l4.3,5.02h-8.65l-4.99-4.99l-2.98,0
					c0.6-1.34,0.95-2.79,1.01-4.24c0.01-0.27,0.01-0.53,0.01-0.8l-0.06-0.8l-0.03-0.4l-0.07-0.39l-0.14-0.78
					c-0.27-1.03-0.61-2.03-1.13-2.95c-0.52-0.91-1.12-1.79-1.87-2.52l-0.27-0.28l-0.3-0.26c-0.2-0.17-0.39-0.35-0.6-0.51
					c-0.43-0.3-0.84-0.62-1.3-0.86c-1.39-0.83-2.97-1.3-4.56-1.46c-0.46-0.05-0.92-0.07-1.37-0.07v0.65v0.46
					c1.85,0.08,3.68,0.6,5.2,1.62c0.4,0.23,0.74,0.53,1.1,0.81c0.17,0.15,0.33,0.31,0.5,0.47l0.25,0.24l0.22,0.26
					c0.62,0.66,1.09,1.45,1.5,2.24c0.4,0.81,0.65,1.67,0.83,2.55l0.08,0.66l0.04,0.33l0.01,0.33l0.02,0.67
					c-0.01,0.22-0.02,0.44-0.04,0.66c-0.16,1.77-0.83,3.46-1.88,4.86l-1.35,1.8l6.24,0l2.71,2.71h-25.68v-9.44h-8.2L213.64,235.68z
					 M202.09,268.93c-0.89,3.49-3.86,6-7.39,6.34c-0.28,0.03-0.56,0.05-0.84,0.05c-4.49,0-8.17-3.5-8.46-7.92
					c-0.01-0.19-0.03-0.38-0.03-0.57c0-2.33,0.97-4.56,2.68-6.18c0.18-0.17,8.28-8.08,8.28-8.08h8.25v8.13L202.09,268.93z
					 M278.9,304.06c-1.51,5.67-3.8,11.2-6.83,16.54l0,0c-0.16,0.27-0.32,0.55-0.48,0.82c-0.12,0.2-0.24,0.41-0.36,0.61
					c-0.16,0.26-0.32,0.53-0.48,0.79c-0.14,0.23-0.28,0.45-0.42,0.67c-0.15,0.24-0.3,0.48-0.46,0.72c-0.28,0.43-0.56,0.86-0.85,1.29
					c-0.11,0.17-0.23,0.33-0.34,0.5c-0.21,0.32-0.43,0.63-0.65,0.95c-0.13,0.18-0.25,0.36-0.38,0.54c-0.23,0.32-0.45,0.63-0.69,0.95
					c-0.11,0.16-0.23,0.31-0.34,0.47c-0.34,0.46-0.69,0.92-1.05,1.38c0,0-0.01,0.01-0.01,0.01c-0.33,0.42-0.67,0.85-1.01,1.27
					c-3.74,4.63-8.09,9.08-13.04,13.3c-3.65,3.12-7.63,6.11-11.91,8.98c-2.05,1.37-4.16,2.72-6.36,4.04l-2.78,1.67h0h0l-2.78-1.67
					c-13.53-8.12-24.41-17.4-32.32-27.59c-0.23-0.3-0.45-0.6-0.68-0.9c-0.15-0.2-0.31-0.4-0.46-0.6c-0.28-0.37-0.54-0.74-0.81-1.12
					c-0.09-0.13-0.19-0.26-0.28-0.39c-0.3-0.43-0.6-0.86-0.9-1.29c-0.05-0.07-0.1-0.15-0.15-0.22c-0.32-0.48-0.64-0.96-0.95-1.44
					c-0.02-0.03-0.03-0.05-0.05-0.08c-4.16-6.46-7.19-13.23-9.05-20.2c-2.25-8.44-2.57-17.94-0.92-27.48
					c0.54-3.11,1.23-5.78,2.09-8.1c0.26,1.71,0.94,3.29,1.91,4.64c-0.32,1.24-0.6,2.55-0.85,4c-0.39,2.27-0.67,4.54-0.83,6.79
					l15.06,7.04c0.25-0.4,0.53-0.79,0.85-1.15c0.23-0.26,0.48-0.49,0.73-0.72l-9.1-11.87c0.92,0.26,1.89,0.4,2.89,0.4
					c0.72,0,1.42-0.08,2.11-0.21l6.19,10.33c0.73-0.34,1.51-0.57,2.31-0.69l-0.92-15.47c0.31-0.64,0.57-1.32,0.76-2.03l2.2-7.25
					l0.08-0.26h48.23l0.34-0.38c1.72-1.92,4.82-4.2,9.8-4.2c2.71,0,5.27,0.94,7.4,2.72c1.62,1.36,3.03,3.22,4.19,5.54
					c1.45,2.89,2.52,6.45,3.29,10.88C281.47,286.12,281.15,295.62,278.9,304.06z"/>
				<path d="M253.7,244.81c0.68,0,1.23-0.55,1.23-1.23c0-0.68-0.55-1.23-1.23-1.23s-1.23,0.55-1.23,1.23
					C252.47,244.25,253.02,244.81,253.7,244.81z"/>
				<path d="M246.65,244.22c0,0,0-0.01,0.01-0.02c0.05-0.19,0.44-1.64,1.91-1.89v-1.17h-3.07v3.08H246.65z"/>
				<path d="M276.67,277.12c-1.3-7.52-4.39-16.49-11.72-16.49c-5.21,0-7.63,3.12-8.47,4.58h-26.79l-18.3,23.87
					c0.23,0.2,0.45,0.42,0.66,0.65c0.37,0.4,0.69,0.84,0.98,1.31l13.13-5.94l-1.08,4.75l-11.06,3.51c0.22,0.82,0.33,1.67,0.31,2.53
					c-0.39-0.08-0.75-0.18-1.08-0.3c-0.37-0.13-0.72-0.28-1.07-0.44c-0.17-0.08-0.34-0.16-0.51-0.24c-0.33-0.16-0.66-0.32-1.02-0.47
					c-0.76-0.32-1.63-0.62-2.76-0.79c-0.16-0.02-0.32-0.04-0.48-0.06c-0.25-0.03-0.52-0.05-0.8-0.07c-0.24-0.01-0.5-0.02-0.76-0.02
					c-0.04,0-0.08,0-0.12,0c-0.04,0-0.07,0-0.11,0c-0.26,0-0.52,0.01-0.76,0.02c-0.26,0.01-0.51,0.03-0.75,0.06
					c-0.18,0.02-0.36,0.04-0.53,0.07c-1.09,0.17-1.94,0.45-2.67,0.76c-0.4,0.17-0.76,0.34-1.11,0.51c-0.18,0.09-0.36,0.17-0.53,0.25
					c-0.34,0.16-0.67,0.3-1.04,0.43c-0.33,0.12-0.68,0.22-1.07,0.3c-0.01-0.89,0.1-1.78,0.34-2.63l-14.2-4.71
					c0,1.66,0.07,3.31,0.21,4.94c0,0,0,0-0.01,0c0.01,0.17,0.03,0.33,0.05,0.49c0.03,0.34,0.05,0.68,0.09,1.02l0.01,0
					c0.03,0.25,0.05,0.51,0.08,0.77c0.07,0,0.14,0,0.22,0c0.19,0,0.37,0,0.55,0.01c0.04,0,0.08,0,0.12,0.01
					c0.15,0.01,0.3,0.02,0.44,0.03c0.02,0,0.04,0,0.06,0c0.34,0.03,0.65,0.07,0.95,0.13v0c1.16,0.21,1.96,0.6,2.85,1.02
					c1.39,0.67,2.96,1.42,5.94,1.42c2.99,0,4.56-0.75,5.94-1.42c0.43-0.21,0.84-0.4,1.28-0.57c0.81-0.32,1.72-0.55,3.04-0.61
					c0.13-0.01,0.27-0.01,0.41-0.01c0.08,0,0.15,0,0.23,0c0.08,0,0.15,0,0.23,0c0.15,0,0.29,0.01,0.43,0.01
					c1.24,0.06,2.13,0.27,2.9,0.56c0.48,0.18,0.93,0.39,1.39,0.62c1.39,0.67,2.96,1.42,5.95,1.42c2.99,0,4.56-0.75,5.95-1.42
					c0.33-0.16,0.65-0.31,0.98-0.45l-0.5,2.2l2.11-0.43l-0.5,2.33c-1.2,0.27-2.07,0.69-2.93,1.1c-1.32,0.63-2.56,1.23-5.1,1.23
					c-2.54,0-3.79-0.6-5.1-1.23c-1.42-0.68-2.89-1.39-5.8-1.39c-2.91,0-4.38,0.7-5.8,1.39c-1.32,0.63-2.56,1.23-5.1,1.23
					c-2.54,0-3.79-0.6-5.1-1.23c-0.84-0.4-1.7-0.81-2.87-1.08c0,0,0,0,0,0c-0.06-0.01-0.12-0.02-0.18-0.04
					c-0.09-0.02-0.18-0.04-0.28-0.06c-0.11-0.02-0.22-0.04-0.33-0.05c-0.07-0.01-0.14-0.02-0.21-0.03l0,0
					c-0.42-0.06-0.88-0.1-1.39-0.11c0.11,0.54,0.23,1.08,0.36,1.62c0.34,0.02,0.64,0.06,0.93,0.1c0.11,0.02,0.21,0.03,0.31,0.05
					c0.07,0.01,0.14,0.02,0.21,0.04c0.16,0.03,0.32,0.07,0.47,0.11c0.01,0,0.03,0.01,0.04,0.01c0.16,0.04,0.32,0.09,0.47,0.14
					c0.65,0.21,1.21,0.48,1.78,0.75c1.42,0.68,2.89,1.39,5.8,1.39s4.38-0.71,5.8-1.39c1.32-0.63,2.56-1.23,5.1-1.23
					c2.54,0,3.79,0.6,5.11,1.23c1.42,0.68,2.89,1.39,5.8,1.39c2.91,0,4.38-0.7,5.8-1.39c0.59-0.28,1.17-0.56,1.86-0.78l-1.04,4.8
					c-0.62,0.23-1.15,0.48-1.66,0.73c-1.34,0.64-2.49,1.2-4.96,1.2c-2.47,0-3.62-0.55-4.96-1.2c-1.39-0.67-2.96-1.42-5.95-1.42
					c-2.98,0-4.56,0.75-5.94,1.42c-1.34,0.64-2.49,1.2-4.96,1.2c-2.46,0-3.62-0.55-4.96-1.2c-0.33-0.16-0.68-0.32-1.05-0.48
					c0,0,0,0,0,0c-0.02-0.01-0.04-0.02-0.07-0.03c-0.05-0.02-0.09-0.04-0.14-0.06l0,0c-0.69-0.28-1.48-0.54-2.47-0.69
					c0.28,0.84,0.58,1.68,0.89,2.52l-0.01,0c1.35,3.6,3.04,7.14,5.05,10.59c0.09,0.16,0.18,0.31,0.27,0.47
					c0.15,0.24,0.29,0.49,0.44,0.73c0.11,0.18,0.22,0.36,0.33,0.54c0.14,0.23,0.29,0.46,0.44,0.69c0.12,0.19,0.25,0.39,0.37,0.58
					c0.14,0.22,0.28,0.44,0.43,0.65c0.14,0.21,0.28,0.42,0.42,0.63c0.14,0.2,0.27,0.4,0.41,0.61c0.16,0.23,0.32,0.46,0.48,0.69
					c0.13,0.18,0.25,0.36,0.38,0.54c0.19,0.27,0.38,0.53,0.58,0.79c0.11,0.15,0.21,0.29,0.32,0.44c0.31,0.41,0.62,0.82,0.93,1.22
					c7.67,9.87,18.25,18.89,31.44,26.81l1.14,0.68l1.14-0.68c13.19-7.92,23.77-16.94,31.44-26.81c0.01-0.01,0.02-0.03,0.03-0.04
					c0.48-0.61,0.94-1.23,1.39-1.85c0.06-0.08,0.12-0.16,0.17-0.23c0.46-0.63,0.91-1.27,1.34-1.9c0.04-0.05,0.07-0.11,0.11-0.16
					c0.92-1.36,1.8-2.74,2.62-4.13c2.14-3.64,3.92-7.37,5.32-11.16l-0.01,0c0.27-0.73,0.53-1.47,0.78-2.21
					c-0.99,0.16-1.78,0.41-2.47,0.69l0,0c-0.04,0.02-0.08,0.04-0.13,0.05c-0.03,0.01-0.05,0.02-0.08,0.03c0,0,0,0,0,0
					c-0.37,0.16-0.72,0.32-1.05,0.48c-1.34,0.64-2.49,1.2-4.96,1.2c-2.46,0-3.62-0.55-4.96-1.2c-1.39-0.67-2.96-1.42-5.94-1.42
					c-2.99,0-4.56,0.75-5.95,1.42c-1.34,0.64-2.49,1.2-4.96,1.2s-3.62-0.55-4.96-1.2c-0.51-0.24-1.04-0.5-1.66-0.73l-1.92-8.88
					l2.11,0.43l0,0h0l-1.28-5.61l6.91-6.86l4.56,3.35l7.14-7.21l7.14,7.21l4.55-3.34l8.17,8.28l2.05,2.08
					c0.1-0.72,0.18-1.45,0.25-2.18l0.01,0c0.01-0.1,0.01-0.2,0.02-0.3c0.01-0.15,0.03-0.3,0.04-0.45l-0.01-0.01
					C277.89,288.29,277.64,282.73,276.67,277.12z M263.25,278.18l0.13-0.41H266l0.81-2.48h0.43l0.81,2.48h2.61l0.13,0.41l-2.11,1.53
					l0.81,2.48l-0.35,0.26l-2.11-1.53l-2.11,1.53l-0.35-0.26l0.81-2.48L263.25,278.18z M257.68,277.88l-0.35,0.26l-2.11-1.53
					l-2.11,1.53l-0.35-0.26l0.81-2.48l-2.11-1.53l0.13-0.41h2.61l0.81-2.48h0.43l0.81,2.48h2.61l0.13,0.41l-2.11,1.53L257.68,277.88
					z M245.88,282.19l-0.35,0.26l-2.11-1.53l-2.11,1.53l-0.35-0.26l0.81-2.48l-2.11-1.53l0.13-0.41h2.61l0.81-2.48h0.43l0.81,2.48
					h2.61l0.13,0.41l-2.11,1.53L245.88,282.19z M236.3,311.49l-2.58-0.52v0l3.54,16.94l0,0l0,0l0,0.01l-6.79-2.74l-6.79,2.74l0-0.01
					l0,0l3.55-16.94l-2.58,0.53l0,0h0l3.37-16.11v0l-1.95,0.4l4.19-22.42h0.42l4.19,22.42l-1.95-0.4v0L236.3,311.49z M231.85,330.14
					l0.52,16.01h-3.81l0.56-16.02l0.09-2.61l1.26-0.62l1.3,0.64L231.85,330.14z M227.18,334.75l-0.08,1.03
					c-1.73,0.06-2.57,0.46-3.69,1c-1.57,0.76-3.36,1.61-6.79,1.61c-3.24,0-5.01-0.76-6.52-1.48c-0.09-0.04-0.18-0.08-0.26-0.13
					c-0.24-0.12-0.47-0.22-0.69-0.32c-0.03-0.02-0.07-0.03-0.1-0.04c-0.3-0.13-0.59-0.24-0.91-0.34l0.95-0.8l0.02-0.01l0.04-0.03
					l0.26-0.22c0.5,0.19,0.95,0.4,1.41,0.62c0.2,0.09,0.39,0.19,0.59,0.28c1.26,0.58,2.7,1.11,5.2,1.11c2.91,0,4.38-0.7,5.8-1.39
					c1.26-0.6,2.46-1.18,4.78-1.22L227.18,334.75z M249.52,335.91c0.2-0.09,0.4-0.19,0.59-0.28c0.46-0.22,0.91-0.43,1.41-0.62
					l1.27,1.07c-0.35,0.1-0.68,0.23-1.01,0.38c-0.03,0.01-0.07,0.03-0.1,0.04c-0.19,0.09-0.38,0.18-0.59,0.28
					c-0.09,0.04-0.18,0.08-0.26,0.13c-1.51,0.72-3.28,1.49-6.52,1.49c-3.43,0-5.21-0.86-6.79-1.61c-1.13-0.54-1.97-0.94-3.71-1
					l-0.08-1.03l-0.03-0.34c2.34,0.05,3.54,0.62,4.81,1.22c1.42,0.68,2.89,1.39,5.8,1.39C246.82,337.01,248.26,336.49,249.52,335.91
					z M222.57,309.96c0.03-0.01,0.05-0.02,0.07-0.04l-0.97,4.5l0,0l0,0.01l2.67-0.54l-3.85,17.96l7.16-3.55l-0.18,2.41l-0.16,2.09
					c-2.77,0.03-4.21,0.72-5.6,1.38c-1.32,0.63-2.56,1.23-5.1,1.23c-2.33,0-3.57-0.5-4.77-1.07c-0.11-0.05-0.22-0.1-0.33-0.16
					c-0.51-0.24-1.03-0.49-1.62-0.71v-22.24l-0.07,0.05l-1.53,1.15v21.41l-1.43,1.2c0,0,0-0.01-0.01-0.01l0-7.1v-1.14l0-15.16
					l2.84-2.13c0.04,0.02,0.09,0.04,0.13,0.06c0.19,0.08,0.38,0.17,0.57,0.26c0.09,0.04,0.18,0.09,0.27,0.13
					c0.43,0.21,0.89,0.43,1.4,0.63c0.01,0.01,0.03,0.01,0.04,0.02c1.11,0.43,2.48,0.78,4.5,0.78
					C219.61,311.38,221.18,310.62,222.57,309.96z M238.37,309.96c1.39,0.67,2.96,1.42,5.95,1.42c2.02,0,3.4-0.35,4.5-0.78
					c0.01-0.01,0.03-0.01,0.05-0.02c0.51-0.2,0.96-0.42,1.4-0.63c0.03-0.01,0.05-0.03,0.08-0.04c0.26-0.12,0.51-0.24,0.76-0.35
					c0.04-0.02,0.09-0.04,0.13-0.06l2.84,2.13l0,23.4c0,0-0.01,0.01-0.01,0.01l-1.43-1.19v-21.41l-1.6-1.2v22.24
					c-0.59,0.22-1.11,0.46-1.62,0.71c-0.11,0.05-0.22,0.11-0.33,0.16c-1.2,0.57-2.44,1.07-4.77,1.07c-2.54,0-3.79-0.6-5.1-1.23
					c-1.39-0.67-2.83-1.36-5.62-1.38l-0.16-2.1l-0.19-2.42l7.2,3.57l-0.5-2.31l-3.35-15.65l2.67,0.54l-0.98-4.51
					C238.32,309.93,238.35,309.94,238.37,309.96z"/>
				<path d="M248.82,316.72c0.25-0.1,0.49-0.21,0.72-0.31v-1.77c-0.04,0.02-0.08,0.04-0.12,0.06c-0.2,0.1-0.4,0.19-0.6,0.28
					c-1.13,0.52-2.35,0.95-4.5,0.95c-2.35,0-3.59-0.51-4.81-1.09v1.76c1.17,0.51,2.56,0.93,4.81,0.93
					C246.37,317.52,247.71,317.17,248.82,316.72z"/>
				<path d="M248.82,321.48c-1.13,0.52-2.35,0.95-4.5,0.95c-1.65,0-2.75-0.25-3.69-0.6v1.69c0.95,0.3,2.11,0.51,3.69,0.51
					c2.06,0,3.4-0.35,4.5-0.8c0.25-0.1,0.49-0.21,0.72-0.31v-1.77c-0.04,0.02-0.08,0.04-0.12,0.06
					C249.22,321.29,249.02,321.38,248.82,321.48z"/>
				<path d="M248.82,327.96c-1.13,0.52-2.35,0.95-4.5,0.95c-0.84,0-1.54-0.07-2.15-0.18v1.62c0.62,0.1,1.33,0.15,2.15,0.15
					c2.06,0,3.4-0.35,4.5-0.8c0.25-0.1,0.49-0.21,0.72-0.31v-1.77c-0.04,0.02-0.08,0.04-0.12,0.06
					C249.22,327.78,249.02,327.87,248.82,327.96z"/>
				<polygon points="191.65,268.94 192.55,269.56 201.91,256.77 201.91,255.14 200.37,255.14 				"/>
				<polygon points="244.69,301.25 244.69,295.75 242.38,295.75 242.38,297.08 243.14,297.08 243.14,301.25 				"/>
				<path d="M249.11,299.77c0,1.1,1.09,1.7,2.12,1.7c1.03,0,2.12-0.59,2.12-1.7c0-0.64-0.34-1.15-0.95-1.41
					c0.44-0.22,0.73-0.69,0.73-1.22c0-1.1-0.99-1.6-1.9-1.6s-1.9,0.5-1.9,1.6c0,0.53,0.28,0.99,0.73,1.22
					C249.45,298.62,249.11,299.12,249.11,299.77z M251.23,297.7c-0.28,0-0.51-0.23-0.51-0.52c0-0.29,0.23-0.52,0.51-0.52
					c0.28,0,0.51,0.23,0.51,0.52C251.73,297.47,251.51,297.7,251.23,297.7z M251.23,300.16c-0.31,0-0.56-0.26-0.56-0.57
					c0-0.32,0.25-0.59,0.56-0.59s0.56,0.26,0.56,0.59C251.78,299.91,251.53,300.16,251.23,300.16z"/>
				<path d="M259.26,295.75l-1.17,1.53c-0.4,0.52-0.87,1.32-0.87,2.17c0,0.56,0.29,1.15,0.75,1.53c0.38,0.3,0.96,0.48,1.57,0.48
					c1.14,0,2.38-0.66,2.38-2.1c0-0.95-0.63-1.96-1.79-1.96c-0.18,0-0.35,0.02-0.53,0.08l1.46-1.73H259.26z M259.52,298.61
					c0.44,0,0.78,0.35,0.78,0.79c0,0.45-0.34,0.81-0.78,0.81c-0.44,0-0.8-0.36-0.8-0.81C258.72,298.97,259.08,298.61,259.52,298.61z
					"/>
				<path d="M265.48,299.77c0,1.1,1.09,1.7,2.12,1.7s2.12-0.59,2.12-1.7c0-0.64-0.34-1.15-0.95-1.41c0.44-0.22,0.73-0.69,0.73-1.22
					c0-1.1-0.99-1.6-1.9-1.6c-0.92,0-1.9,0.5-1.9,1.6c0,0.53,0.28,0.99,0.73,1.22C265.83,298.62,265.48,299.12,265.48,299.77z
					 M267.61,297.7c-0.28,0-0.51-0.23-0.51-0.52c0-0.29,0.23-0.52,0.51-0.52c0.28,0,0.51,0.23,0.51,0.52
					C268.11,297.47,267.89,297.7,267.61,297.7z M267.61,300.16c-0.31,0-0.56-0.26-0.56-0.57c0-0.32,0.25-0.59,0.56-0.59
					c0.31,0,0.56,0.26,0.56,0.59C268.16,299.91,267.91,300.16,267.61,300.16z"/>
			</g>
		</g>
		<g>
			<path class="st0" d="M295.96,279.43c0-12.6,6.83-20.37,18.89-20.37c11.99,0,18.83,7.77,18.83,20.37
				c0,12.6-6.83,20.37-18.83,20.37C302.8,299.8,295.96,292.03,295.96,279.43z M323.64,279.43c0-12.4-2.75-17.15-8.78-17.15
				c-6.1,0-8.84,4.76-8.84,17.15c0,12.33,2.75,17.15,8.84,17.15C320.89,296.58,323.64,291.76,323.64,279.43z"/>
			<path class="st0" d="M352.58,297.05l-0.87,2.08h-16.35v-1.88l2.75-1.21v-18.29l-2.81-4.42v-0.74l10.12-3.35h1.41l-0.2,6.83h0.27
				c1.34-3.42,3.95-6.83,8.38-6.83c3.55,0,5.69,2.08,5.69,5.36c0,3.02-2.08,4.89-4.62,4.89c-2.88,0-4.62-1.94-4.62-4.69
				c-1.67,0.74-3.28,2.28-4.82,4.29v16.68L352.58,297.05z"/>
			<path class="st0" d="M377.37,294.17c3.02,0,4.76-0.74,7.24-2.61l1.27,1.47c-2.14,4.82-6.23,6.77-11.93,6.77
				c-7.64,0-13.67-4.89-13.67-14.87c0-10.12,6.83-15.68,14.94-15.68c6.57,0,11.12,3.82,11.12,10.85c0,1.07-0.07,2.55-0.34,3.82
				h-17.15C368.99,290.02,371.67,294.17,377.37,294.17z M368.99,280.77h9.45c0.13-0.54,0.2-1.41,0.2-2.48
				c0-3.15-0.87-5.96-4.02-5.96C371.67,272.33,369.53,275.08,368.99,280.77z"/>
			<path class="st0" d="M407.79,293.3c6.37,0,10.39,3.08,10.39,9.51c0,8.17-8.11,11.19-16.95,11.19c-8.17,0-14.2-1.88-14.2-7.04
				c0-3.82,3.02-5.56,7.57-6.23v-0.2c-3.82-0.47-5.96-2.68-5.96-6.16c0-3.48,2.61-5.56,6.3-6.3c-3.82-1.34-6.23-4.02-6.23-8.38
				c0-5.9,4.42-10.45,12.86-10.45c3.48,0,7.57,0.67,10.72,2.21c-0.27-0.4-0.4-0.94-0.4-1.61c0-2.14,1.61-3.48,3.69-3.48
				c2.14,0,3.68,1.47,3.68,3.82c0,2.55-1.68,3.95-4.09,3.95c-1.74,0-3.35-0.67-5.29-1.41v0.67c2.35,1.07,3.95,3.35,3.95,6.37
				c0,6.43-6.43,9.31-12.33,9.31c-1.47,0-2.81-0.13-4.09-0.47c-1.41,0.47-2.48,1.21-2.48,2.68c0,1.34,0.8,2.01,2.41,2.01H407.79z
				 M394.39,305.83c0,3.55,2.61,5.23,7.24,5.23c5.29,0,9.31-1.47,9.31-5.7c0-2.55-1.34-4.09-5.29-4.09h-8.44
				C395.46,302.21,394.39,303.69,394.39,305.83z M401.29,272.26c-3.42,0-4.02,2.61-4.02,6.97c0,4.29,0.6,6.9,4.02,6.9
				c3.48,0,4.09-2.61,4.09-6.9C405.37,274.88,404.77,272.26,401.29,272.26z"/>
			<path class="st0" d="M431.64,299.8c-9.04,0-15.01-5.16-15.01-15.28c0-10.12,5.96-15.28,15.01-15.28
				c9.05,0,15.01,5.16,15.01,15.28C446.65,294.64,440.68,299.8,431.64,299.8z M431.64,296.72c4.49,0,5.7-4.42,5.7-12.19
				c0-7.77-1.21-12.19-5.7-12.19c-4.49,0-5.69,4.42-5.69,12.19C425.94,292.3,427.15,296.72,431.64,296.72z"/>
			<path class="st0" d="M481.82,297.19l-0.87,1.94h-14.67v-1.88l2.75-1.27v-14.61c0-4.35-2.28-5.83-4.76-5.83
				c-2.28,0-4.09,1.14-5.29,2.28v18.09l3.95,1.27l-0.87,1.94h-14.61v-1.88l2.75-1.21v-18.36l-2.81-4.42v-0.74l10.12-3.28h1.41
				l-0.2,5.83h0.27c2.41-3.82,5.76-5.83,10.25-5.83c4.89,0,8.64,3.42,8.64,10.25v16.42L481.82,297.19z"/>
			<path class="st0" d="M508.82,291.16c0-3.62-1.88-5.36-6.3-7.1l-4.82-2.01c-4.96-2.01-7.84-5.36-7.84-11.52
				c0-7.97,6.16-11.46,12.66-11.46c3.55,0,6.43,0.8,8.51,1.47l3.28-1.47l0.6,11.12l-1.81,0.4l-3.22-4.22
				c-2.01-2.81-4.09-4.29-7.57-4.29c-3.15,0-5.29,2.01-5.29,5.09c0,3.08,1.41,4.89,5.43,6.5l5.02,2.01c6.3,2.48,9.05,6.1,9.05,12.26
				c0,8.04-6.1,11.86-13.27,11.86c-4.82,0-7.37-1.21-9.25-2.14l-3.62,2.14l-1.14-12.73l2.08-0.4l3.28,4.76
				c2.21,3.42,4.69,5.23,8.51,5.23C506.68,296.65,508.82,294.64,508.82,291.16z"/>
			<path class="st0" d="M517.06,271.19l10.72-9.18h2.01v7.91h8.84l-0.47,3.48h-8.31v15.81c0,3.89,1.47,5.36,4.15,5.36
				c1.74,0,3.08-0.4,4.96-1.41l0.67,1.61c-2.08,3.15-5.43,5.02-9.72,5.02c-5.23,0-8.84-2.61-8.84-9.45V273.4h-4.02V271.19z"/>
			<path class="st0" d="M564.96,292.7c0,3.02,1.07,3.68,4.22,3.35l0.2,1.34c-1.67,1.61-3.89,2.41-7.04,2.41
				c-2.88,0-5.29-1.21-5.83-4.29l-0.2-0.07c-1.41,3.02-4.49,4.35-8.11,4.35c-4.49,0-8.17-2.48-8.17-8.04c0-5.9,4.69-8.78,12.13-8.78
				c1.41,0,2.95,0.27,4.02,0.54v-2.55c0-3.89-2.48-5.83-6.43-5.83c-2.81,0-5.16,0.54-7.97,2.01l-0.8-1.94
				c2.88-3.89,7.5-5.96,13-5.96c5.56,0,10.99,2.48,10.99,10.65V292.7z M554.71,286.06c-3.95,0-6.23,1.01-6.23,4.56
				c0,2.48,1.47,4.15,3.82,4.15c1.47,0,2.68-0.33,3.89-1.41v-7.3H554.71z"/>
			<path class="st0" d="M566.17,271.19l10.72-9.18h2.01v7.91h8.84l-0.47,3.48h-8.31v15.81c0,3.89,1.47,5.36,4.15,5.36
				c1.74,0,3.08-0.4,4.96-1.41l0.67,1.61c-2.08,3.15-5.43,5.02-9.72,5.02c-5.23,0-8.84-2.61-8.84-9.45V273.4h-4.02V271.19z"/>
			<path class="st0" d="M605.23,294.17c3.02,0,4.76-0.74,7.24-2.61l1.27,1.47c-2.14,4.82-6.23,6.77-11.93,6.77
				c-7.64,0-13.67-4.89-13.67-14.87c0-10.12,6.83-15.68,14.94-15.68c6.57,0,11.12,3.82,11.12,10.85c0,1.07-0.07,2.55-0.34,3.82
				h-17.15C596.85,290.02,599.53,294.17,605.23,294.17z M596.85,280.77h9.45c0.13-0.54,0.2-1.41,0.2-2.48
				c0-3.15-0.87-5.96-4.02-5.96C599.53,272.33,597.39,275.08,596.85,280.77z"/>
		</g>
	</g>
</g>
</svg>
